<mxfile host="app.diagrams.net" modified="2020-07-10T16:13:45.265Z" agent="5.0 (Windows NT 10.0; WOW64) AppleWebKit/537.36 (KHTML, like Gecko) Chrome/83.0.4103.106 Safari/537.36" etag="l9RQxhdI99YacBUPDfsw" version="13.0.9" type="github">
  <diagram id="P9GZ5SS8-WofCc8K9uHy" name="Page-1">
    <mxGraphModel dx="1422" dy="762" grid="1" gridSize="10" guides="1" tooltips="1" connect="1" arrows="1" fold="1" page="1" pageScale="1" pageWidth="827" pageHeight="1169" math="0" shadow="0">
      <root>
        <mxCell id="0" />
        <mxCell id="1" parent="0" />
        <mxCell id="godzJyZly2EqLJ2VA-yU-26" value="" style="rounded=0;whiteSpace=wrap;html=1;fillColor=#ffe6cc;strokeColor=#d79b00;" parent="1" vertex="1">
          <mxGeometry x="30" y="110" width="940" height="540" as="geometry" />
        </mxCell>
        <mxCell id="godzJyZly2EqLJ2VA-yU-17" value="" style="edgeStyle=orthogonalEdgeStyle;rounded=0;orthogonalLoop=1;jettySize=auto;html=1;" parent="1" source="godzJyZly2EqLJ2VA-yU-1" target="godzJyZly2EqLJ2VA-yU-2" edge="1">
          <mxGeometry relative="1" as="geometry" />
        </mxCell>
        <mxCell id="godzJyZly2EqLJ2VA-yU-1" value="nginx" style="rounded=0;whiteSpace=wrap;html=1;fillColor=#f5f5f5;strokeColor=#666666;fontColor=#333333;" parent="1" vertex="1">
          <mxGeometry x="170" y="170" width="50" height="380" as="geometry" />
        </mxCell>
        <mxCell id="godzJyZly2EqLJ2VA-yU-18" style="edgeStyle=orthogonalEdgeStyle;rounded=0;orthogonalLoop=1;jettySize=auto;html=1;entryX=0;entryY=0.5;entryDx=0;entryDy=0;" parent="1" source="godzJyZly2EqLJ2VA-yU-2" target="godzJyZly2EqLJ2VA-yU-4" edge="1">
          <mxGeometry relative="1" as="geometry" />
        </mxCell>
        <mxCell id="godzJyZly2EqLJ2VA-yU-19" style="edgeStyle=orthogonalEdgeStyle;rounded=0;orthogonalLoop=1;jettySize=auto;html=1;entryX=0;entryY=0.5;entryDx=0;entryDy=0;" parent="1" source="godzJyZly2EqLJ2VA-yU-2" target="godzJyZly2EqLJ2VA-yU-5" edge="1">
          <mxGeometry relative="1" as="geometry" />
        </mxCell>
        <mxCell id="godzJyZly2EqLJ2VA-yU-2" value="gateway" style="rounded=0;whiteSpace=wrap;html=1;fillColor=#dae8fc;strokeColor=#6c8ebf;" parent="1" vertex="1">
          <mxGeometry x="260" y="170" width="60" height="380" as="geometry" />
        </mxCell>
        <mxCell id="godzJyZly2EqLJ2VA-yU-4" value="yidao-portal" style="whiteSpace=wrap;html=1;aspect=fixed;" parent="1" vertex="1">
          <mxGeometry x="364" y="250" width="100" height="100" as="geometry" />
        </mxCell>
        <mxCell id="godzJyZly2EqLJ2VA-yU-5" value="yidao-mange" style="whiteSpace=wrap;html=1;aspect=fixed;" parent="1" vertex="1">
          <mxGeometry x="364" y="420" width="100" height="100" as="geometry" />
        </mxCell>
        <mxCell id="godzJyZly2EqLJ2VA-yU-7" value="yidao-user" style="rounded=0;whiteSpace=wrap;html=1;" parent="1" vertex="1">
          <mxGeometry x="660" y="450" width="120" height="60" as="geometry" />
        </mxCell>
        <mxCell id="godzJyZly2EqLJ2VA-yU-25" style="edgeStyle=orthogonalEdgeStyle;rounded=0;orthogonalLoop=1;jettySize=auto;html=1;entryX=0.465;entryY=0.017;entryDx=0;entryDy=0;entryPerimeter=0;" parent="1" source="godzJyZly2EqLJ2VA-yU-8" target="godzJyZly2EqLJ2VA-yU-24" edge="1">
          <mxGeometry relative="1" as="geometry" />
        </mxCell>
        <mxCell id="godzJyZly2EqLJ2VA-yU-8" value="&lt;span class=&quot;cm-variable&quot; style=&quot;box-sizing: border-box ; font-size: 13px ; letter-spacing: 0.12px ; background-color: rgb(249 , 249 , 249)&quot;&gt;payment&lt;/span&gt;&lt;span style=&quot;font-size: 13px ; letter-spacing: 0.12px ; background-color: rgb(249 , 249 , 249)&quot;&gt; &lt;/span&gt;" style="rounded=0;whiteSpace=wrap;html=1;" parent="1" vertex="1">
          <mxGeometry x="500" y="450" width="120" height="60" as="geometry" />
        </mxCell>
        <mxCell id="godzJyZly2EqLJ2VA-yU-9" value="yidao-tool" style="rounded=0;whiteSpace=wrap;html=1;" parent="1" vertex="1">
          <mxGeometry x="500" y="350" width="120" height="60" as="geometry" />
        </mxCell>
        <mxCell id="godzJyZly2EqLJ2VA-yU-10" value="&lt;font style=&quot;font-size: 12px&quot;&gt;&lt;span class=&quot;cm-variable&quot; style=&quot;box-sizing: border-box ; letter-spacing: 0.12px ; background-color: rgb(249 , 249 , 249)&quot;&gt;yidao&lt;/span&gt;&lt;span class=&quot;cm-operator&quot; style=&quot;box-sizing: border-box ; letter-spacing: 0.12px ; background-color: rgb(249 , 249 , 249)&quot;&gt;-&lt;/span&gt;&lt;span class=&quot;cm-variable&quot; style=&quot;box-sizing: border-box ; letter-spacing: 0.12px ; background-color: rgb(249 , 249 , 249)&quot;&gt;socia&lt;/span&gt;&lt;/font&gt;" style="rounded=0;whiteSpace=wrap;html=1;fillColor=#ffffff;" parent="1" vertex="1">
          <mxGeometry x="500" y="250" width="120" height="60" as="geometry" />
        </mxCell>
        <mxCell id="godzJyZly2EqLJ2VA-yU-11" value="&lt;span class=&quot;cm-variable&quot; style=&quot;box-sizing: border-box ; font-size: 13px ; letter-spacing: 0.12px ; background-color: rgb(249 , 249 , 249)&quot;&gt;yidao&lt;/span&gt;&lt;span class=&quot;cm-operator&quot; style=&quot;box-sizing: border-box ; font-size: 13px ; letter-spacing: 0.12px ; background-color: rgb(249 , 249 , 249)&quot;&gt;-&lt;/span&gt;&lt;span class=&quot;cm-operator&quot; style=&quot;box-sizing: border-box ; font-size: 13px ; letter-spacing: 0.12px ; background-color: rgb(249 , 249 , 249)&quot;&gt;ext&lt;/span&gt;" style="rounded=0;whiteSpace=wrap;html=1;" parent="1" vertex="1">
          <mxGeometry x="660" y="250" width="120" height="60" as="geometry" />
        </mxCell>
        <mxCell id="godzJyZly2EqLJ2VA-yU-13" value="&lt;span class=&quot;cm-variable&quot; style=&quot;text-align: left ; box-sizing: border-box ; font-size: 13px ; letter-spacing: 0.12px ; background-color: rgb(249 , 249 , 249)&quot;&gt;yidao&lt;/span&gt;&lt;span class=&quot;cm-operator&quot; style=&quot;text-align: left ; box-sizing: border-box ; font-size: 13px ; letter-spacing: 0.12px ; background-color: rgb(249 , 249 , 249)&quot;&gt;-&lt;/span&gt;&lt;span class=&quot;cm-variable&quot; style=&quot;text-align: left ; box-sizing: border-box ; font-size: 13px ; letter-spacing: 0.12px ; background-color: rgb(249 , 249 , 249)&quot;&gt;user&lt;/span&gt;" style="rounded=0;whiteSpace=wrap;html=1;" parent="1" vertex="1">
          <mxGeometry x="660" y="340" width="120" height="60" as="geometry" />
        </mxCell>
        <mxCell id="godzJyZly2EqLJ2VA-yU-14" value="Eureka" style="rounded=0;whiteSpace=wrap;html=1;fillColor=#008a00;strokeColor=#005700;fontColor=#ffffff;" parent="1" vertex="1">
          <mxGeometry x="370" y="170" width="420" height="60" as="geometry" />
        </mxCell>
        <mxCell id="godzJyZly2EqLJ2VA-yU-16" style="edgeStyle=orthogonalEdgeStyle;rounded=0;orthogonalLoop=1;jettySize=auto;html=1;entryX=0;entryY=0.5;entryDx=0;entryDy=0;" parent="1" source="godzJyZly2EqLJ2VA-yU-15" target="godzJyZly2EqLJ2VA-yU-1" edge="1">
          <mxGeometry relative="1" as="geometry" />
        </mxCell>
        <mxCell id="godzJyZly2EqLJ2VA-yU-15" value="" style="pointerEvents=1;shadow=0;dashed=0;html=1;strokeColor=none;fillColor=#505050;labelPosition=center;verticalLabelPosition=bottom;verticalAlign=top;outlineConnect=0;align=center;shape=mxgraph.office.devices.cell_phone_iphone_proportional;" parent="1" vertex="1">
          <mxGeometry x="40" y="335" width="30" height="50" as="geometry" />
        </mxCell>
        <mxCell id="godzJyZly2EqLJ2VA-yU-21" value="redis" style="shape=datastore;whiteSpace=wrap;html=1;fillColor=#a20025;strokeColor=#6F0000;fontColor=#ffffff;" parent="1" vertex="1">
          <mxGeometry x="820" y="390" width="100" height="110" as="geometry" />
        </mxCell>
        <mxCell id="godzJyZly2EqLJ2VA-yU-22" value="mysql" style="shape=datastore;whiteSpace=wrap;html=1;fillColor=#647687;strokeColor=#314354;fontColor=#ffffff;" parent="1" vertex="1">
          <mxGeometry x="820" y="240" width="100" height="110" as="geometry" />
        </mxCell>
        <mxCell id="godzJyZly2EqLJ2VA-yU-24" value="阿里云RocketMq" style="shape=process;whiteSpace=wrap;html=1;backgroundOutline=1;fillColor=#bac8d3;strokeColor=#23445d;" parent="1" vertex="1">
          <mxGeometry x="334" y="550" width="486" height="60" as="geometry" />
        </mxCell>
        <mxCell id="godzJyZly2EqLJ2VA-yU-27" value="&lt;font style=&quot;font-size: 29px&quot;&gt;音悦艺道架构图&lt;/font&gt;" style="text;html=1;strokeColor=none;fillColor=none;align=center;verticalAlign=middle;whiteSpace=wrap;rounded=0;" parent="1" vertex="1">
          <mxGeometry y="110" width="276" height="40" as="geometry" />
        </mxCell>
      </root>
    </mxGraphModel>
  </diagram>
</mxfile>
